<svg xmlns="http://www.w3.org/2000/svg" xmlns:xlink="http://www.w3.org/1999/xlink" viewBox="-1390.737 29.482 132.843 70.687">
  <defs>
    <style>
      .cls-1 {
        clip-path: url(#clip-path);
      }

      .cls-2 {
        fill: url(#linear-gradient);
      }

      .cls-3 {
        clip-path: url(#clip-path-2);
      }

      .cls-4 {
        fill: url(#linear-gradient-2);
      }

      .cls-5 {
        clip-path: url(#clip-path-3);
      }

      .cls-6 {
        fill: url(#linear-gradient-3);
      }

      .cls-7 {
        fill: url(#linear-gradient-4);
      }

      .cls-8 {
        clip-path: url(#clip-path-4);
      }

      .cls-9 {
        fill: url(#linear-gradient-5);
      }

      .cls-10 {
        clip-path: url(#clip-path-5);
      }

      .cls-11 {
        fill: url(#linear-gradient-6);
      }

      .cls-12 {
        fill: #133b63;
      }

      .cls-13 {
        fill: #5d9541;
      }

      .cls-14 {
        fill: #15375e;
      }

      .cls-15 {
        fill: #5c9641;
      }
    </style>
    <clipPath id="clip-path">
      <path id="Path_431" data-name="Path 431" d="M125.8,62.423l24.32.04.04-5.023L125.8,57.4Z" transform="translate(-125.8 -57.4)"/>
    </clipPath>
    <linearGradient id="linear-gradient" x1="-5.675" y1="36.055" x2="-5.667" y2="36.055" gradientUnits="objectBoundingBox">
      <stop offset="0" stop-color="#046aa9"/>
      <stop offset="0.667" stop-color="#0e4b7b"/>
      <stop offset="1" stop-color="#133b63"/>
    </linearGradient>
    <clipPath id="clip-path-2">
      <path id="Path_432" data-name="Path 432" d="M141,86.342l28.985,1.236L171.46,80.8H141.638Z" transform="translate(-141 -80.8)"/>
    </clipPath>
    <linearGradient id="linear-gradient-2" x1="-4.752" y1="25.481" x2="-4.746" y2="25.481" xlink:href="#linear-gradient"/>
    <clipPath id="clip-path-3">
      <path id="Path_434" data-name="Path 434" d="M125.1,51.325c9.17-.12,13.476,4.545,13.476,4.545L119,55.831v.04c-.319-1.954,1.2-4.505,6.1-4.545M120.874,46.9h-.08c-6.339,0-10.605,1.116-12.4,3.389-1.794,2.312-.4,5.5,2.512,9.05,3.07,3.708,6.5,6.14,11.961,8.333A46.751,46.751,0,0,0,140.13,70.9c5.023,0,9.05-.678,11.243-2.073s2.352-4.505,1.276-6.5H142.443c.4,2.512-1.156,3.867-6.02,3.867a24,24,0,0,1-9.05-1.714c-4.465-1.954-5.781-4.067-5.821-4.067h29.822l-.439-.6a35.986,35.986,0,0,0-12.878-9.529A43.752,43.752,0,0,0,120.874,46.9h0" transform="translate(-107.596 -46.9)"/>
    </clipPath>
    <linearGradient id="linear-gradient-3" x1="-1.862" y1="3.322" x2="-1.859" y2="3.322" gradientUnits="objectBoundingBox">
      <stop offset="0" stop-color="#fff"/>
      <stop offset="0.434" stop-color="#f3f5f8"/>
      <stop offset="1" stop-color="#dde1ec"/>
    </linearGradient>
    <linearGradient id="linear-gradient-4" x1="0.245" y1="0.499" x2="0.698" y2="0.499" gradientUnits="objectBoundingBox">
      <stop offset="0" stop-color="#5d9541"/>
      <stop offset="0.616" stop-color="#6ead42"/>
      <stop offset="1" stop-color="#7bbf43"/>
    </linearGradient>
    <clipPath id="clip-path-4">
      <path id="Path_437" data-name="Path 437" d="M111,77.1l-1.356-3.708,5.5-1.794a26.885,26.885,0,0,1-5.063-4.7c-2.312-2.791-3.668-5.382-3.229-7.5-.8,1.635-1.874,10.446,4.146,17.7" transform="translate(-106.23 -59.4)"/>
    </clipPath>
    <linearGradient id="linear-gradient-5" x1="-4.45" y1="6.749" x2="-4.443" y2="6.749" xlink:href="#linear-gradient-4"/>
    <clipPath id="clip-path-5">
      <path id="Path_439" data-name="Path 439" d="M119.6,92.812l3.588,9.927,1.076-2.751s1.874,1.116,2.95,1.635a36.272,36.272,0,0,0,17.263,3.189c14.393-.478,15.429-10.645,15.668-11.682a4.089,4.089,0,0,1-1.515,1.794C156.439,96.28,152.412,97,147.388,97a45.924,45.924,0,0,1-17.263-3.189c-1.236-.478-3.429-1.515-3.429-1.515l.678-1.993Z" transform="translate(-119.6 -90.3)"/>
    </clipPath>
    <linearGradient id="linear-gradient-6" x1="-3.123" y1="7.323" x2="-3.119" y2="7.323" xlink:href="#linear-gradient-4"/>
  </defs>
  <g id="Group_699" data-name="Group 699" transform="translate(-1471)">
    <g id="Group_691" data-name="Group 691">
      <g id="Group_534" data-name="Group 534" transform="translate(80.263 -17.418)">
        <g id="Group_530" data-name="Group 530" transform="translate(25.715 46.9)">
          <g id="Group_520" data-name="Group 520" transform="translate(24.439 4.186)">
            <g id="Group_519" data-name="Group 519" class="cls-1">
              <rect id="Rectangle_77" data-name="Rectangle 77" class="cls-2" width="24.36" height="5.063"/>
            </g>
          </g>
          <g id="Group_522" data-name="Group 522" transform="translate(30.5 13.515)">
            <g id="Group_521" data-name="Group 521" class="cls-3">
              <rect id="Rectangle_78" data-name="Rectangle 78" class="cls-4" width="30.46" height="6.778"/>
            </g>
          </g>
          <g id="Group_529" data-name="Group 529" transform="translate(16.637)">
            <g id="Group_524" data-name="Group 524" transform="translate(0.545)">
              <g id="Group_523" data-name="Group 523" class="cls-5">
                <path id="Path_433" data-name="Path 433" class="cls-6" d="M81.2,37.995,99.978,0l47.4,23.443L128.6,61.438Z" transform="translate(-91.724 -18.698)"/>
              </g>
            </g>
            <g id="Group_526" data-name="Group 526" transform="translate(0 4.984)">
              <path id="Path_435" data-name="Path 435" class="cls-7" d="M111,77.1l-1.356-3.708,5.5-1.794a26.885,26.885,0,0,1-5.063-4.7c-2.312-2.791-3.668-5.382-3.229-7.5-.8,1.635-1.874,10.446,4.146,17.7" transform="translate(-106.23 -59.4)"/>
              <g id="Group_525" data-name="Group 525" class="cls-8">
                <path id="Path_436" data-name="Path 436" class="cls-9" d="M94.019,47.1,108.93,58.582,96.611,74.609,81.7,63.087Z" transform="translate(-91.48 -52.004)"/>
              </g>
            </g>
            <g id="Group_528" data-name="Group 528" transform="translate(5.331 17.303)">
              <g id="Group_527" data-name="Group 527" class="cls-10">
                <path id="Path_438" data-name="Path 438" class="cls-11" d="M157.163,102.722,115.5,98.057,117.613,79l41.663,4.665Z" transform="translate(-117.135 -83.505)"/>
              </g>
            </g>
          </g>
          <path id="Path_440" data-name="Path 440" class="cls-12" d="M73.75,141.75a4.216,4.216,0,0,0-2.91-1,4.136,4.136,0,0,0-2.95,1,3.329,3.329,0,0,0-1.076,1.834h7.934a3.461,3.461,0,0,0-1-1.834M66.733,145.5c.239,2.033,1.595,3.03,4.027,3.03,1.954,0,3.309-.239,3.987-1.914h2.273a4.812,4.812,0,0,1-2.711,3.07,7.691,7.691,0,0,1-3.588.757,6.542,6.542,0,0,1-4.665-1.595,6.18,6.18,0,0,1,.159-8.372A6.3,6.3,0,0,1,70.8,138.8a6.706,6.706,0,0,1,4.545,1.475,4.94,4.94,0,0,1,1.714,3.947v1.236H66.733Z" transform="translate(-64.5 -102.161)"/>
          <path id="Path_441" data-name="Path 441" class="cls-12" d="M110.911,150.2v-7.136c0-1.555-1-2.312-2.99-2.312a3.74,3.74,0,0,0-2.671.917,3.1,3.1,0,0,0-.957,2.352v6.18H102.1V139.039h2.193v.758a6.343,6.343,0,0,1,3.588-1,6.156,6.156,0,0,1,3.588.957,3.493,3.493,0,0,1,1.595,3.11V150.2Z" transform="translate(-87.109 -102.161)"/>
          <path id="Path_442" data-name="Path 442" class="cls-12" d="M146.287,149.6a7.185,7.185,0,0,1-3.548.837,6.692,6.692,0,0,1-4.625-1.555,5.188,5.188,0,0,1-1.714-4.067,5.765,5.765,0,0,1,1.754-4.346,6.7,6.7,0,0,1,4.824-1.674,6.615,6.615,0,0,1,3.269.8,5.062,5.062,0,0,1,2.233,3.11l-1.993.12a3.694,3.694,0,0,0-3.548-2.113,4.36,4.36,0,0,0-3.229,1.116,3.937,3.937,0,0,0-1.116,2.95,3.482,3.482,0,0,0,1.037,2.671,4.33,4.33,0,0,0,3.07,1.037c2.073,0,3.548-1,3.827-2.312h2.113a5.314,5.314,0,0,1-2.352,3.429" transform="translate(-107.734 -102.161)"/>
          <path id="Path_443" data-name="Path 443" class="cls-12" d="M181.368,141.89a4.31,4.31,0,0,0-3.15-1.076,4.21,4.21,0,0,0-3.11,1.076,3.725,3.725,0,0,0-1.116,2.831,3.636,3.636,0,0,0,1.116,2.791,5.03,5.03,0,0,0,6.22,0,3.636,3.636,0,0,0,1.116-2.791,3.725,3.725,0,0,0-1.076-2.831m1.515,7.017a7.678,7.678,0,0,1-9.369,0,5.92,5.92,0,0,1,.04-8.372,7.53,7.53,0,0,1,9.369,0,5.443,5.443,0,0,1,1.714,4.186,5.339,5.339,0,0,1-1.754,4.186" transform="translate(-129.021 -102.221)"/>
          <path id="Path_444" data-name="Path 444" class="cls-12" d="M213.41,142.229a5.869,5.869,0,0,0-.917,3.389V150.2H210.3V139.039h2.193v1.037a7.873,7.873,0,0,1,4.864-1.276v1.954c-1.954,0-3.229.478-3.947,1.475" transform="translate(-152.171 -102.161)"/>
          <path id="Path_445" data-name="Path 445" class="cls-12" d="M241.61,141.81a4.216,4.216,0,0,0-2.91-1,4.136,4.136,0,0,0-2.95,1,3.329,3.329,0,0,0-1.076,1.834h7.934a3.213,3.213,0,0,0-1-1.834m-6.977,3.748c.279,2.033,1.595,3.03,4.027,3.03,1.954,0,3.309-.08,3.987-1.714h2.233a4.5,4.5,0,0,1-2.711,2.91,7.8,7.8,0,0,1-3.588.758,6.374,6.374,0,0,1-4.625-1.595,6.18,6.18,0,0,1,.159-8.372A6.237,6.237,0,0,1,238.7,138.9a6.706,6.706,0,0,1,4.545,1.475,4.94,4.94,0,0,1,1.714,3.947v1.236Z" transform="translate(-165.461 -102.221)"/>
          <rect id="Rectangle_79" data-name="Rectangle 79" class="cls-12" width="79.498" height="0.08" transform="translate(0 50.753)"/>
          <path id="Path_446" data-name="Path 446" class="cls-13" d="M80.366,185.288a2.378,2.378,0,0,1-1.834.718,2.2,2.2,0,0,1-2.432-2.153c0-1.236.877-2.153,2.552-2.153a2.071,2.071,0,0,1,1.754.678l-.478.6a1.6,1.6,0,0,0-1.356-.558c-1.076,0-1.714.6-1.714,1.435,0,.917.678,1.435,1.674,1.435a1.625,1.625,0,0,0,1.4-.558Z" transform="translate(-71.475 -127.957)"/>
          <path id="Path_447" data-name="Path 447" class="cls-13" d="M93.452,182.7l-.837,1.635h1.674Zm1.635,3.349-.558-1.076H92.3l-.558,1.076H90.9l2.153-4.146h.718l2.193,4.146Z" transform="translate(-80.375 -128.077)"/>
          <path id="Path_448" data-name="Path 448" class="cls-13" d="M110.393,184.013c.558,0,.877-.2.877-.718s-.319-.718-.877-.718h-1.2v1.435Zm-1.993,2.033V181.9h2.073c1,0,1.555.4,1.555,1.356,0,1-.518,1.4-1.555,1.4H109.2v1.4Z" transform="translate(-90.898 -128.077)"/>
          <rect id="Rectangle_80" data-name="Rectangle 80" class="cls-13" width="0.758" height="4.146" transform="translate(23.164 53.823)"/>
          <path id="Path_449" data-name="Path 449" class="cls-13" d="M130.955,186.046v-3.469H129.4V181.9h3.867v.678h-1.555v3.469Z" transform="translate(-103.525 -128.077)"/>
          <path id="Path_450" data-name="Path 450" class="cls-13" d="M143.612,182.7l-.837,1.635h1.674Zm1.674,3.349-.558-1.076H142.5l-.558,1.076H141.1l2.153-4.146h.718l2.193,4.146Z" transform="translate(-110.561 -128.077)"/>
          <path id="Path_451" data-name="Path 451" class="cls-13" d="M158.5,186.046V181.9h.758v3.469h2.591v.678Z" transform="translate(-121.023 -128.077)"/>
          <path id="Path_452" data-name="Path 452" class="cls-13" d="M183.028,184.352h-1.595v-.638h2.352v1.595a2.531,2.531,0,0,1-1.954.8c-1.356,0-2.432-.678-2.432-2.153,0-1.316.837-2.153,2.432-2.153a2.456,2.456,0,0,1,1.954.678l-.478.558a1.693,1.693,0,0,0-1.515-.558c-1.037,0-1.595.518-1.595,1.435,0,1,.718,1.475,1.714,1.475a1.607,1.607,0,0,0,1.156-.359v-.678Z" transform="translate(-133.591 -128.017)"/>
          <path id="Path_453" data-name="Path 453" class="cls-13" d="M196.658,182.578v1.4h1.435c.439,0,.8-.2.8-.718,0-.478-.359-.678-.8-.678Zm2.552,3.469-1.156-1.435h-1.4v1.435H195.9V181.9h2.273c1.156,0,1.515.6,1.515,1.356a1.16,1.16,0,0,1-.917,1.2l1.356,1.635h-.917Z" transform="translate(-143.513 -128.077)"/>
          <path id="Path_454" data-name="Path 454" class="cls-13" d="M212.632,182.478a1.47,1.47,0,1,0,0,2.91c.957,0,1.674-.518,1.674-1.435a1.483,1.483,0,0,0-1.674-1.475m0,3.628a2.169,2.169,0,1,1,0-4.306,2.263,2.263,0,0,1,2.472,2.193,2.205,2.205,0,0,1-2.472,2.113" transform="translate(-152.111 -128.017)"/>
          <path id="Path_455" data-name="Path 455" class="cls-13" d="M231.009,181.9h.757v2.552c0,1.276-1,1.714-2.033,1.714s-2.033-.4-2.033-1.714V181.9h.758v2.512c0,.718.478,1.037,1.276,1.037s1.276-.319,1.276-1.037V181.9Z" transform="translate(-162.634 -128.077)"/>
          <path id="Path_456" data-name="Path 456" class="cls-13" d="M245.393,184.013c.558,0,.917-.2.917-.718s-.319-.718-.917-.718h-1.2v1.435Zm-1.993,2.033V181.9h2.073c1,0,1.555.4,1.555,1.356,0,1-.518,1.4-1.555,1.4H244.2v1.4Z" transform="translate(-172.075 -128.077)"/>
        </g>
        <g id="Group_533" data-name="Group 533" transform="translate(0 108.975)">
          <g id="Group_531" data-name="Group 531" transform="translate(0 1.435)">
            <path id="Path_457" data-name="Path 457" class="cls-14" d="M3.229,206.54a5.5,5.5,0,0,1,.877.08,1.737,1.737,0,0,1,.678.279,1.1,1.1,0,0,1,.439.518,1.581,1.581,0,0,1,.159.8,1.516,1.516,0,0,1-.239.877,1.891,1.891,0,0,1-.678.558,1.645,1.645,0,0,1,.957.638,2.005,2.005,0,0,1,.319,1.076,1.9,1.9,0,0,1-.2.877,1.6,1.6,0,0,1-.558.6,2.644,2.644,0,0,1-.758.359,3.321,3.321,0,0,1-.877.12H0V206.5H3.229Zm-.2,2.791a1.235,1.235,0,0,0,.678-.2c.2-.12.239-.319.239-.638a1.179,1.179,0,0,0-.08-.4.359.359,0,0,0-.239-.239,2.741,2.741,0,0,0-.319-.12,1.229,1.229,0,0,0-.4-.04h-1.4v1.595H3.03Zm.08,2.871a1.635,1.635,0,0,0,.439-.04A1.417,1.417,0,0,0,3.907,212a.536.536,0,0,0,.239-.279.789.789,0,0,0,.08-.439.888.888,0,0,0-.279-.758,1.265,1.265,0,0,0-.8-.239H1.515v1.874H3.11Z" transform="translate(0 -206.38)"/>
            <path id="Path_458" data-name="Path 458" class="cls-14" d="M17.674,214.907a1.163,1.163,0,0,0,.877.279,1.377,1.377,0,0,0,.718-.2.742.742,0,0,0,.359-.439h1.2a2.227,2.227,0,0,1-.877,1.276,2.753,2.753,0,0,1-1.435.4,2.667,2.667,0,0,1-1.037-.2,2.752,2.752,0,0,1-.8-.518,1.992,1.992,0,0,1-.518-.837,3.086,3.086,0,0,1,.04-2.073,2.276,2.276,0,0,1,.518-.837,2.863,2.863,0,0,1,.8-.558,2.824,2.824,0,0,1,1.037-.2,2.427,2.427,0,0,1,1.116.239,2.392,2.392,0,0,1,.758.638,2.628,2.628,0,0,1,.439.957,3.44,3.44,0,0,1,.08,1.116H17.356A1.313,1.313,0,0,0,17.674,214.907Zm1.515-2.591a1.021,1.021,0,0,0-.758-.279,1.273,1.273,0,0,0-.558.12,1.241,1.241,0,0,0-.359.279,1.615,1.615,0,0,0-.2.359c-.04.12-.04.239-.08.319h2.193A.965.965,0,0,0,19.189,212.316Z" transform="translate(-9.621 -209.086)"/>
            <path id="Path_459" data-name="Path 459" class="cls-14" d="M32.35,209.175v.917h-1v2.432a.479.479,0,0,0,.6.6h.239a.359.359,0,0,0,.2-.04v1.037c-.12,0-.239.04-.4.04h-.4a3.017,3.017,0,0,1-.6-.04,1.345,1.345,0,0,1-.478-.159,1.523,1.523,0,0,1-.359-.359,1.331,1.331,0,0,1-.12-.6v-2.91H29.2v-.917h.837V207.7h1.356v1.475Z" transform="translate(-17.558 -207.102)"/>
            <path id="Path_460" data-name="Path 460" class="cls-14" d="M40.85,209.175v.917h-1v2.432a.479.479,0,0,0,.6.6h.239a.359.359,0,0,0,.2-.04v1.037c-.12,0-.239.04-.4.04h-.4a3.017,3.017,0,0,1-.6-.04,1.345,1.345,0,0,1-.478-.159,1.523,1.523,0,0,1-.359-.359,1.331,1.331,0,0,1-.12-.6v-2.91H37.7v-.917h.837V207.7h1.356v1.475Z" transform="translate(-22.67 -207.102)"/>
            <path id="Path_461" data-name="Path 461" class="cls-14" d="M48.374,214.907a1.163,1.163,0,0,0,.877.279,1.377,1.377,0,0,0,.718-.2.742.742,0,0,0,.359-.439h1.2a2.227,2.227,0,0,1-.877,1.276,2.753,2.753,0,0,1-1.435.4,2.667,2.667,0,0,1-1.037-.2,2.752,2.752,0,0,1-.8-.518,1.992,1.992,0,0,1-.518-.837,3.086,3.086,0,0,1,.04-2.073,2.276,2.276,0,0,1,.518-.837,2.863,2.863,0,0,1,.8-.558,2.824,2.824,0,0,1,1.037-.2,2.427,2.427,0,0,1,1.116.239,2.392,2.392,0,0,1,.758.638,2.628,2.628,0,0,1,.439.957,3.44,3.44,0,0,1,.08,1.116H48.056A1.165,1.165,0,0,0,48.374,214.907Zm1.515-2.591a1.021,1.021,0,0,0-.758-.279,1.273,1.273,0,0,0-.558.12,1.241,1.241,0,0,0-.359.279,1.615,1.615,0,0,0-.2.359.651.651,0,0,0,0,.279h2.193A1.33,1.33,0,0,0,49.889,212.316Z" transform="translate(-28.081 -209.086)"/>
            <path id="Path_462" data-name="Path 462" class="cls-14" d="M62.276,211.22v.917h0c.08-.159.159-.279.239-.439a.908.908,0,0,1,.359-.319,2.137,2.137,0,0,1,.439-.2,2,2,0,0,1,.478-.08.679.679,0,0,1,.279.04v1.276c-.08,0-.159-.04-.239-.04h-.239a1.518,1.518,0,0,0-.638.12.873.873,0,0,0-.4.359,2.061,2.061,0,0,0-.239.518,3.1,3.1,0,0,0-.08.638v2.233H61V211.3h1.276Z" transform="translate(-36.68 -209.146)"/>
            <path id="Path_463" data-name="Path 463" class="cls-14" d="M78.035,211.5a1.561,1.561,0,0,0,.319.4,2.655,2.655,0,0,0,.478.239,2.691,2.691,0,0,0,.558.08,1.788,1.788,0,0,0,.439-.04c.159-.04.279-.08.439-.12a.553.553,0,0,0,.319-.279.716.716,0,0,0,.12-.439.545.545,0,0,0-.159-.439,1.379,1.379,0,0,0-.478-.279,2.99,2.99,0,0,0-.638-.2,4.818,4.818,0,0,1-.718-.2c-.239-.08-.518-.159-.758-.239a1.663,1.663,0,0,1-.638-.359,1.623,1.623,0,0,1-.478-.558,1.679,1.679,0,0,1-.159-.8,1.748,1.748,0,0,1,.239-.917,2.283,2.283,0,0,1,.6-.638,2.715,2.715,0,0,1,.837-.4,3.619,3.619,0,0,1,.917-.12,4.345,4.345,0,0,1,1.037.12,2.207,2.207,0,0,1,.877.4,1.985,1.985,0,0,1,.6.678,1.942,1.942,0,0,1,.239,1H80.587a1.1,1.1,0,0,0-.12-.518,1.075,1.075,0,0,0-.279-.319,1.667,1.667,0,0,0-.4-.159,2.107,2.107,0,0,0-.518-.04,1.1,1.1,0,0,0-.359.04,2.746,2.746,0,0,0-.319.12.687.687,0,0,0-.239.239c-.08.08-.08.2-.08.359a.751.751,0,0,0,.08.319.729.729,0,0,0,.319.239,2.007,2.007,0,0,0,.638.2,10.654,10.654,0,0,1,1.037.279,5.2,5.2,0,0,0,.518.12,2.6,2.6,0,0,1,.678.319,2.832,2.832,0,0,1,.6.6,1.7,1.7,0,0,1,.239.957,2.173,2.173,0,0,1-.2.877,1.558,1.558,0,0,1-.558.678,2.024,2.024,0,0,1-.877.439,3.875,3.875,0,0,1-1.236.159,4.689,4.689,0,0,1-1.076-.12,2.628,2.628,0,0,1-.957-.439,1.971,1.971,0,0,1-.638-.758A2.374,2.374,0,0,1,76.6,210.9h1.435A.63.63,0,0,0,78.035,211.5Z" transform="translate(-46.061 -206.2)"/>
            <path id="Path_464" data-name="Path 464" class="cls-14" d="M92.3,212.555a2.277,2.277,0,0,1,.518-.837,2.124,2.124,0,0,1,.8-.518,3,3,0,0,1,1.037-.2,3.044,3.044,0,0,1,1.076.2,2.3,2.3,0,0,1,.8.518,2.277,2.277,0,0,1,.518.837,3.006,3.006,0,0,1,0,2.153,2.277,2.277,0,0,1-.518.837,2.124,2.124,0,0,1-.8.518,3.043,3.043,0,0,1-1.076.2,2.666,2.666,0,0,1-1.037-.2,1.852,1.852,0,0,1-.8-.518,2.277,2.277,0,0,1-.518-.837,3.044,3.044,0,0,1-.2-1.076A4.309,4.309,0,0,1,92.3,212.555Zm1.236,1.635a2,2,0,0,0,.2.518.782.782,0,0,0,.359.359,1.274,1.274,0,0,0,.558.12,1.457,1.457,0,0,0,.6-.12.782.782,0,0,0,.359-.359,2,2,0,0,0,.2-.518,4.5,4.5,0,0,0,0-1.2,2,2,0,0,0-.2-.518.782.782,0,0,0-.359-.359,1.331,1.331,0,0,0-.6-.12,1.056,1.056,0,0,0-.558.12.782.782,0,0,0-.359.359,2,2,0,0,0-.2.518,3.017,3.017,0,0,0-.04.6A2.823,2.823,0,0,0,93.535,214.189Z" transform="translate(-55.381 -209.086)"/>
            <path id="Path_465" data-name="Path 465" class="cls-14" d="M108.656,206.6v6.818H107.3V206.6Z" transform="translate(-64.521 -206.441)"/>
            <path id="Path_466" data-name="Path 466" class="cls-14" d="M116.749,216.344v-.718h-.04a1.74,1.74,0,0,1-.678.638,2.143,2.143,0,0,1-.837.2,1.816,1.816,0,0,1-.877-.159,2.829,2.829,0,0,1-.558-.4,1.556,1.556,0,0,1-.279-.638,4.977,4.977,0,0,1-.08-.837V211.4h1.356v2.791a1.841,1.841,0,0,0,.2.917.749.749,0,0,0,.678.319.989.989,0,0,0,.8-.319,1.957,1.957,0,0,0,.239-1.076V211.44h1.356v4.944h-1.276Z" transform="translate(-68.189 -209.327)"/>
            <path id="Path_467" data-name="Path 467" class="cls-14" d="M129.75,209.175v.917h-1v2.432a.479.479,0,0,0,.6.6h.239a.359.359,0,0,0,.2-.04v1.037c-.12,0-.239.04-.4.04h-.4a3.017,3.017,0,0,1-.6-.04,1.345,1.345,0,0,1-.478-.159,1.029,1.029,0,0,1-.359-.359.954.954,0,0,1-.12-.6v-2.91H126.6v-.917h.837V207.7h1.356v1.475Z" transform="translate(-76.126 -207.102)"/>
            <path id="Path_468" data-name="Path 468" class="cls-14" d="M136.2,207.716V206.6h1.356v1.116Zm1.356.8v4.944H136.2v-4.944Z" transform="translate(-81.899 -206.44)"/>
            <path id="Path_469" data-name="Path 469" class="cls-14" d="M142.1,212.555a2.277,2.277,0,0,1,.518-.837,2.124,2.124,0,0,1,.8-.518,3,3,0,0,1,1.037-.2,3.044,3.044,0,0,1,1.076.2,2.3,2.3,0,0,1,.8.518,2.277,2.277,0,0,1,.518.837,3.006,3.006,0,0,1,0,2.153,2.277,2.277,0,0,1-.518.837,2.124,2.124,0,0,1-.8.518,3.043,3.043,0,0,1-1.076.2,2.666,2.666,0,0,1-1.037-.2,2.125,2.125,0,0,1-.8-.518,2.277,2.277,0,0,1-.518-.837,3.006,3.006,0,0,1,0-2.153Zm1.236,1.635a2,2,0,0,0,.2.518.782.782,0,0,0,.359.359,1.274,1.274,0,0,0,.558.12,1.457,1.457,0,0,0,.6-.12.782.782,0,0,0,.359-.359,2,2,0,0,0,.2-.518,4.506,4.506,0,0,0,0-1.2,2,2,0,0,0-.2-.518.782.782,0,0,0-.359-.359,1.331,1.331,0,0,0-.6-.12,1.056,1.056,0,0,0-.558.12.782.782,0,0,0-.359.359,2,2,0,0,0-.2.518,3.017,3.017,0,0,0-.04.6A1.469,1.469,0,0,0,143.335,214.189Z" transform="translate(-85.326 -209.086)"/>
            <path id="Path_470" data-name="Path 470" class="cls-14" d="M158.276,211.159v.678h.04a1.74,1.74,0,0,1,.678-.638,2.143,2.143,0,0,1,.837-.2,1.817,1.817,0,0,1,.877.159,2.829,2.829,0,0,1,.558.4,1.167,1.167,0,0,1,.279.638,4.975,4.975,0,0,1,.08.837v3.03h-1.356v-2.791a1.841,1.841,0,0,0-.2-.917.749.749,0,0,0-.678-.319.989.989,0,0,0-.8.319,1.957,1.957,0,0,0-.239,1.076v2.591H157V211.08h1.276Z" transform="translate(-94.406 -209.086)"/>
            <path id="Path_471" data-name="Path 471" class="cls-14" d="M172.056,214.747c.08.12.12.2.239.239s.2.12.319.159a1.229,1.229,0,0,0,.4.04.991.991,0,0,0,.319-.04c.12-.04.2-.04.279-.12a.48.48,0,0,0,.2-.2.751.751,0,0,0,.08-.319c0-.2-.12-.359-.4-.478a8.085,8.085,0,0,0-1.116-.319,3.324,3.324,0,0,1-.6-.159c-.2-.08-.359-.159-.518-.239a1.029,1.029,0,0,1-.359-.359,1.158,1.158,0,0,1-.12-.558,1.57,1.57,0,0,1,.2-.8,1.374,1.374,0,0,1,.478-.478,1.963,1.963,0,0,1,.678-.239,4.906,4.906,0,0,1,.8-.08,5.4,5.4,0,0,1,.8.08,1.707,1.707,0,0,1,.678.239,1.374,1.374,0,0,1,.478.478,1.885,1.885,0,0,1,.239.757H173.85a.529.529,0,0,0-.279-.518,1.518,1.518,0,0,0-.638-.12h-.239a.567.567,0,0,0-.239.08c-.08.04-.12.08-.2.12s-.08.159-.08.239a.31.31,0,0,0,.12.279,1.434,1.434,0,0,0,.359.2l.478.12c.2.04.359.08.558.12a3.32,3.32,0,0,1,.6.159c.2.08.359.159.518.239a.873.873,0,0,1,.359.4,1.331,1.331,0,0,1,.12.6,1.853,1.853,0,0,1-.2.837,1.3,1.3,0,0,1-.518.518,1.93,1.93,0,0,1-.718.279,4.435,4.435,0,0,1-1.674,0,1.93,1.93,0,0,1-.718-.279,1.609,1.609,0,0,1-.518-.518,2.094,2.094,0,0,1-.239-.837h1.276A.583.583,0,0,0,172.056,214.747Z" transform="translate(-102.644 -208.966)"/>
            <path id="Path_472" data-name="Path 472" class="cls-14" d="M185.715,220.1v1.475H184.2V220.1Z" transform="translate(-110.762 -214.558)"/>
            <path id="Path_473" data-name="Path 473" class="cls-13" d="M200.989,206.54a5.5,5.5,0,0,1,.877.08,1.737,1.737,0,0,1,.678.279,1.1,1.1,0,0,1,.439.518,1.581,1.581,0,0,1,.159.8,1.516,1.516,0,0,1-.239.877,1.891,1.891,0,0,1-.678.558,1.645,1.645,0,0,1,.957.638,2.005,2.005,0,0,1,.319,1.076,1.9,1.9,0,0,1-.2.877,1.6,1.6,0,0,1-.558.6,2.644,2.644,0,0,1-.758.359,3.32,3.32,0,0,1-.877.12H197.8V206.5h3.189Zm-.159,2.791a1.236,1.236,0,0,0,.678-.2.734.734,0,0,0,.239-.638,1.179,1.179,0,0,0-.08-.4.359.359,0,0,0-.239-.239,2.74,2.74,0,0,0-.319-.12,1.229,1.229,0,0,0-.4-.04h-1.4v1.595h1.515Zm.08,2.871a1.635,1.635,0,0,0,.439-.04.985.985,0,0,0,.359-.159.536.536,0,0,0,.239-.279,1.433,1.433,0,0,0,.08-.439.888.888,0,0,0-.279-.758,1.265,1.265,0,0,0-.8-.239h-1.635v1.874h1.595Z" transform="translate(-118.94 -206.38)"/>
            <path id="Path_474" data-name="Path 474" class="cls-13" d="M215.474,214.907a1.163,1.163,0,0,0,.877.279,1.377,1.377,0,0,0,.718-.2.742.742,0,0,0,.359-.439h1.2a2.227,2.227,0,0,1-.877,1.276,2.753,2.753,0,0,1-1.435.4,2.667,2.667,0,0,1-1.037-.2,2.752,2.752,0,0,1-.8-.518,2.548,2.548,0,0,1-.678-1.874,3,3,0,0,1,.2-1.037,2.276,2.276,0,0,1,.518-.837,2.863,2.863,0,0,1,.8-.558,2.824,2.824,0,0,1,1.037-.2,2.427,2.427,0,0,1,1.116.239,2.392,2.392,0,0,1,.757.638,2.628,2.628,0,0,1,.439.957,3.44,3.44,0,0,1,.08,1.116h-3.588A1.313,1.313,0,0,0,215.474,214.907Zm1.515-2.591a1.021,1.021,0,0,0-.757-.279,1.273,1.273,0,0,0-.558.12,1.241,1.241,0,0,0-.359.279.815.815,0,0,0-.2.359c-.04.12-.04.239-.08.319h2.193A.965.965,0,0,0,216.989,212.316Z" transform="translate(-128.561 -209.086)"/>
            <path id="Path_475" data-name="Path 475" class="cls-13" d="M230.15,209.175v.917h-1v2.432a.479.479,0,0,0,.6.6h.239a.359.359,0,0,0,.2-.04v1.037c-.12,0-.239.04-.4.04h-.4a3.017,3.017,0,0,1-.6-.04,1.345,1.345,0,0,1-.478-.159,1.523,1.523,0,0,1-.359-.359.954.954,0,0,1-.12-.6v-2.91H227v-.917h.837V207.7h1.356v1.475Z" transform="translate(-136.498 -207.102)"/>
            <path id="Path_476" data-name="Path 476" class="cls-13" d="M238.65,209.175v.917h-1v2.432a.479.479,0,0,0,.6.6h.239a.359.359,0,0,0,.2-.04v1.037c-.12,0-.239.04-.4.04h-.4a3.017,3.017,0,0,1-.6-.04,1.345,1.345,0,0,1-.478-.159,1.522,1.522,0,0,1-.359-.359.954.954,0,0,1-.12-.6v-2.91H235.5v-.917h.837V207.7h1.356v1.475Z" transform="translate(-141.609 -207.102)"/>
            <path id="Path_477" data-name="Path 477" class="cls-13" d="M246.074,214.907a1.163,1.163,0,0,0,.877.279,1.377,1.377,0,0,0,.718-.2.742.742,0,0,0,.359-.439h1.2a2.227,2.227,0,0,1-.877,1.276,2.753,2.753,0,0,1-1.435.4,2.667,2.667,0,0,1-1.037-.2,2.752,2.752,0,0,1-.8-.518,2.548,2.548,0,0,1-.678-1.874,2.994,2.994,0,0,1,.2-1.037,2.276,2.276,0,0,1,.518-.837,2.863,2.863,0,0,1,.8-.558,2.823,2.823,0,0,1,1.037-.2,2.427,2.427,0,0,1,1.116.239,2.392,2.392,0,0,1,.757.638,2.628,2.628,0,0,1,.439.957,3.44,3.44,0,0,1,.08,1.116h-3.588A1.313,1.313,0,0,0,246.074,214.907Zm1.555-2.591a1.021,1.021,0,0,0-.758-.279,1.273,1.273,0,0,0-.558.12,1.241,1.241,0,0,0-.359.279.815.815,0,0,0-.2.359c-.04.12-.04.239-.08.319h2.193A.965.965,0,0,0,247.629,212.316Z" transform="translate(-146.961 -209.086)"/>
            <path id="Path_478" data-name="Path 478" class="cls-13" d="M259.9,211.22v.917h0c.08-.159.159-.279.239-.439a2.58,2.58,0,0,1,.359-.319,2.137,2.137,0,0,1,.439-.2,2,2,0,0,1,.478-.08.679.679,0,0,1,.279.04v1.276c-.08,0-.159-.04-.239-.04h-.239a1.518,1.518,0,0,0-.638.12.873.873,0,0,0-.4.359,1.235,1.235,0,0,0-.239.518,3.1,3.1,0,0,0-.08.638v2.233H258.5V211.3h1.4Z" transform="translate(-155.44 -209.146)"/>
            <path id="Path_479" data-name="Path 479" class="cls-13" d="M276.675,206.6v5.582h3.349v1.276H275.2V206.64h1.475Z" transform="translate(-165.481 -206.441)"/>
            <path id="Path_480" data-name="Path 480" class="cls-13" d="M289.1,207.716V206.6h1.356v1.116Zm1.356.8v4.944H289.1v-4.944Z" transform="translate(-173.84 -206.44)"/>
            <path id="Path_481" data-name="Path 481" class="cls-13" d="M293.9,209.331v-.917h.8v-.4a1.443,1.443,0,0,1,.4-1.076,1.662,1.662,0,0,1,1.236-.439h.359a1.1,1.1,0,0,1,.359.04v1c-.159,0-.319-.04-.478-.04a.529.529,0,0,0-.4.12.641.641,0,0,0-.12.439v.279h.957v.917h-.957v4.027H294.7v-4.027h-.8Z" transform="translate(-176.726 -206.38)"/>
            <path id="Path_482" data-name="Path 482" class="cls-13" d="M304.274,214.907a1.163,1.163,0,0,0,.877.279,1.377,1.377,0,0,0,.718-.2.742.742,0,0,0,.359-.439h1.2a2.227,2.227,0,0,1-.877,1.276,2.753,2.753,0,0,1-1.435.4,2.667,2.667,0,0,1-1.037-.2,2.752,2.752,0,0,1-.8-.518,2.548,2.548,0,0,1-.678-1.874,3,3,0,0,1,.2-1.037,2.276,2.276,0,0,1,.518-.837,2.863,2.863,0,0,1,.8-.558,2.824,2.824,0,0,1,1.037-.2,2.427,2.427,0,0,1,1.116.239,2.392,2.392,0,0,1,.757.638,2.627,2.627,0,0,1,.439.957,3.439,3.439,0,0,1,.08,1.116h-3.588A1.313,1.313,0,0,0,304.274,214.907Zm1.555-2.591a1.021,1.021,0,0,0-.758-.279,1.273,1.273,0,0,0-.558.12,1.241,1.241,0,0,0-.359.279.815.815,0,0,0-.2.359c-.04.12-.04.239-.08.319h2.193A.965.965,0,0,0,305.829,212.316Z" transform="translate(-181.957 -209.086)"/>
            <path id="Path_483" data-name="Path 483" class="cls-13" d="M318.615,220.1v1.475H317.1V220.1Z" transform="translate(-190.676 -214.558)"/>
          </g>
          <g id="Group_532" data-name="Group 532" transform="translate(127.819 0)">
            <path id="Path_484" data-name="Path 484" class="cls-15" d="M325.623,205.112a2.824,2.824,0,0,1-.2,1.037,1.926,1.926,0,0,1-.558.8,2.753,2.753,0,0,1-.8.518,2.566,2.566,0,0,1-.957.2,2.612,2.612,0,0,1-1-.2,2.492,2.492,0,0,1-1.515-2.312,2.824,2.824,0,0,1,.2-1.037,1.926,1.926,0,0,1,.558-.8,2.467,2.467,0,0,1,2.711-.518,2.124,2.124,0,0,1,.8.518,2.863,2.863,0,0,1,.558.8A2.612,2.612,0,0,1,325.623,205.112Zm-.558,0a1.849,1.849,0,0,0-.159-.837,2.334,2.334,0,0,0-.4-.678,2.1,2.1,0,0,0-.6-.439,1.879,1.879,0,0,0-1.515,0,2.279,2.279,0,0,0-.638.439,1.907,1.907,0,0,0-.4.678,2.838,2.838,0,0,0-.159.837,2.571,2.571,0,0,0,.12.8,2.334,2.334,0,0,0,.4.678,1.3,1.3,0,0,0,.6.439,2.578,2.578,0,0,0,.8.159,1.618,1.618,0,0,0,.757-.159,1.665,1.665,0,0,0,.6-.439,1.908,1.908,0,0,0,.4-.678A1.254,1.254,0,0,0,325.065,205.112Zm-2.432,1.435h-.478v-2.791h1.076a1.321,1.321,0,0,1,.758.2.7.7,0,0,1,.239.6.789.789,0,0,1-.2.558.758.758,0,0,1-.518.2l.8,1.236h-.518l-.718-1.2h-.439Zm.518-1.555h.239a1.727,1.727,0,0,0,.2-.04c.04,0,.12-.08.159-.12s.04-.12.04-.239a.3.3,0,0,0-.04-.2.55.55,0,0,0-.159-.12.3.3,0,0,0-.2-.04h-.758v.837h.518Z" transform="translate(-320.6 -202.6)"/>
          </g>
        </g>
      </g>
    </g>
  </g>
</svg>
